<svg xmlns="http://www.w3.org/2000/svg" width="212.419" height="110.196" viewBox="0 0 212.419 110.196">
  <g id="Group_24" data-name="Group 24" transform="translate(-165.78 -293.784)">
    <g id="Group_1" data-name="Group 1" transform="translate(195.688 337.257)">
      <rect id="Rectangle_1" data-name="Rectangle 1" width="89.037" height="17.175" transform="translate(0 0)" fill="#0060af"/>
    </g>
    <g id="Group_2" data-name="Group 2" transform="translate(298.289 363.568)">
      <rect id="Rectangle_2" data-name="Rectangle 2" width="79.463" height="19.986" transform="translate(0 0)" fill="#0060af"/>
    </g>
    <g id="Group_4" data-name="Group 4" transform="translate(252.157 294.037)">
      <g id="Group_3" data-name="Group 3" transform="translate(0)">
        <path id="Path_1" data-name="Path 1" d="M783.147,384.979h25.021l-45.8-89.517H737.948Z" transform="translate(-737.948 -295.462)" fill="#0079c7"/>
      </g>
    </g>
    <g id="Group_5" data-name="Group 5" transform="translate(167.518 293.986)">
      <path id="Path_2" data-name="Path 2" d="M200.928,384.636H177.29l45.191-89.514h24.678Z" transform="translate(-177.29 -295.121)" fill="#00a1ed"/>
    </g>
    <g id="Group_6" data-name="Group 6" transform="translate(206.703 294.037)">
      <path id="Path_3" data-name="Path 3" d="M460.492,384.979H436.854l45.2-89.517H506.73Z" transform="translate(-436.854 -295.462)" fill="#00a1ed"/>
    </g>
    <g id="Group_7" data-name="Group 7" transform="translate(308.208 293.784)">
      <path id="Path_4" data-name="Path 4" d="M1165.838,354.475c-2.453,1.955-2.453,1.955-4.9,3.673-.573.078-.573.078-1.39.162a71.77,71.77,0,0,0,5.8-4.329l.49.494Zm4.491-4.907h0a43.341,43.341,0,0,1-4.083,4.5c-.167-.165-.167-.165-.488-.493a48.61,48.61,0,0,0,4.9-5.227,2.411,2.411,0,0,1-.324,1.222Zm6.046-30.218h0a43.579,43.579,0,0,1,.9,4.328,10.152,10.152,0,0,1,.084,1.552c-.494-2.45-.494-2.45-1.143-5.062a8.888,8.888,0,0,0-.408-2.616,14.67,14.67,0,0,1,.571,1.8Zm1.059,6.288h0a17.539,17.539,0,0,1,.086,2.123,6.7,6.7,0,0,0-.086-1.308v-.815Zm.086,2.862h0a30.4,30.4,0,0,1-.329,4.735c-.161.983-.161.983-.406,2.043a29.312,29.312,0,0,0,.161-3.919,35.38,35.38,0,0,0,.573-4.575V328.5Zm-.735,7.187h0a2.4,2.4,0,0,1-.17.73v-.243c.08-.241.08-.241.17-.488Zm-.324,1.386h0a32.672,32.672,0,0,1-2.292,6.29,13.048,13.048,0,0,0,.487-1.553,30.323,30.323,0,0,0,1.875-5.225,1.183,1.183,0,0,1-.071.487Zm-2.532,6.863h0c-.739,1.306-1.478,2.612-2.3,3.919-.487.653-.487.653-.979,1.308a2.485,2.485,0,0,0,.328-1.308,50.821,50.821,0,0,0,3.428-5.552c-.24.893-.24.893-.481,1.634Zm-14.868,15.273h0a38.386,38.386,0,0,1-4.171,1.8,11.27,11.27,0,0,1-1.714.4,39.251,39.251,0,0,0,5.885-2.862,3.405,3.405,0,0,0,1.383-.162c-.726.409-.726.409-1.383.819Zm-14.95,4h0a25.863,25.863,0,0,1-4.985-.162,14.791,14.791,0,0,1-1.628-.249,29.836,29.836,0,0,0,4.65-.078,16.575,16.575,0,0,0,3.922.328c-1.065.077-1.065.077-1.959.162Zm-5.72-.244h0c-.655-.084-1.308-.168-1.965-.246a2.954,2.954,0,0,1,.823.078l1.143.168Zm-3.757-.655h0a30.759,30.759,0,0,1-6.042-2.045,10.412,10.412,0,0,0,2.533.656,34.953,34.953,0,0,0,4.893,1.631,9.15,9.15,0,0,0-1.383-.243Zm-7.516-2.7h0v-.081a34.454,34.454,0,0,1-4.65-2.782,4.319,4.319,0,0,0,1.873.247,46.622,46.622,0,0,0,5.393,3.267,26.323,26.323,0,0,1-2.616-.652Zm-1.134-.655h0a25.671,25.671,0,0,1-3.765-2.365c.08.077.08.077.163.077a41.137,41.137,0,0,0,3.6,2.287Zm-15.933-18.3h0a6.654,6.654,0,0,1-.408-1.222,8.329,8.329,0,0,1-.415-2.618,46.807,46.807,0,0,0,2.453,5.638,4.748,4.748,0,0,0,.084,1.961c-.9-1.961-.9-1.961-1.714-3.759Zm36.751-46.883Zm10.213,2.777h0a3.712,3.712,0,0,0,.814.409c1.959,1.061,1.959,1.061,3.926,2.288a6.975,6.975,0,0,0-2.038-.324,38.859,38.859,0,0,0-5.314-3.024,11.793,11.793,0,0,1,2.612.652Zm-21.726-.979h0a51.11,51.11,0,0,0-6.7,3.352,9.656,9.656,0,0,0-2.373-.659,39.611,39.611,0,0,1,5.885-2.858,22.225,22.225,0,0,1,3.185.165Zm6.373-1.638h0a47.633,47.633,0,0,0-5.8,1.472,11.838,11.838,0,0,0-3.263-.162,28.638,28.638,0,0,1,5.385-1.385,18.61,18.61,0,0,1,3.679.075ZM1117,316.9h0a59.273,59.273,0,0,0-4.743,7.106,31.421,31.421,0,0,1-1.388-4.982,48.583,48.583,0,0,1,4.085-6.537A47.191,47.191,0,0,0,1117,316.9Zm7.346-7.921h0a82.558,82.558,0,0,0-6.863,7.265,30.15,30.15,0,0,1-2.118-4.326,53.985,53.985,0,0,1,5.963-6.453c1.3,1.552,1.3,1.552,3.018,3.514Zm23.524-13.4h0a44.923,44.923,0,0,0-6.04,1.876,45.928,45.928,0,0,0-4.906-1.795,38.469,38.469,0,0,1,5.963-1.555,37.009,37.009,0,0,1,4.983,1.473Zm4.822-.243h0a16.869,16.869,0,0,0-4.412.243,30.8,30.8,0,0,0-4.9-1.554,30.227,30.227,0,0,1,4.575-.084,44.223,44.223,0,0,1,4.736,1.395Zm-39.943,43.369h0a15.966,15.966,0,0,0-1.063,3.512,47.373,47.373,0,0,1-2.453-5.634,20.7,20.7,0,0,1,.655-4.166,46.965,46.965,0,0,0,2.861,6.288Zm9.475-13.56h0c-3.187,3.838-3.187,3.838-5.8,7.272a49.141,49.141,0,0,1-3.505-6.782,56.859,56.859,0,0,1,4.893-7.187c1.959,3.183,1.959,3.183,4.412,6.7Zm8.742-8.818h0c-4.251,4.081-4.251,4.081-8.085,8.166-2.537-3.591-2.537-3.591-4.5-6.7a76.94,76.94,0,0,1,7.192-7.515c2.446,2.777,2.446,2.777,5.391,6.045Zm9.638-7.924h0c-4.414,3.429-4.414,3.429-8.905,7.268-2.938-3.267-2.938-3.267-5.475-6.049a99.722,99.722,0,0,1,8.169-6.363c2.945,2.284,2.945,2.284,6.212,5.144Zm14.859-8.658h0a56.645,56.645,0,0,0-5.715,2.695,63.653,63.653,0,0,0-6.367-4.168,42.991,42.991,0,0,1,6.042-1.959,37.312,37.312,0,0,1,6.04,3.432Zm4.01-.814h0a14.744,14.744,0,0,0-3.6.731,45.179,45.179,0,0,0-6.044-3.431,21.06,21.06,0,0,1,4.251-.324,58.051,58.051,0,0,1,5.394,3.024Zm-40.927,48.351h0c-1.139,1.307-1.139,1.307-1.955,2.2a62.169,62.169,0,0,1-4-5.634,15.191,15.191,0,0,1,1.22-3.267c2.206,3.35,2.206,3.35,4.738,6.7Zm12-11.76h0c-3.75,3.592-3.75,3.592-7.013,6.61-3.027-3.836-3.027-3.836-5.808-7.675,2.781-3.349,2.781-3.349,6.049-7.187,3.263,4.085,3.263,4.085,6.772,8.251Zm27.691-24.669h0c-3.426,2.861-3.426,2.861-7.423,6.288-3.763-3.92-3.763-3.92-7.522-7.519,4.083-3.02,4.083-3.02,7.763-5.385,3.6,3.1,3.6,3.1,7.183,6.616Zm5.226-4.328h0c-2.045,1.715-2.045,1.715-4.732,3.839-3.516-3.431-3.516-3.431-7.028-6.451a45.167,45.167,0,0,1,5.561-2.861,78.051,78.051,0,0,1,6.2,5.474Zm2.784-1.964h0c-.982.658-.982.658-2.451,1.717a64.234,64.234,0,0,0-6.208-5.39,23.705,23.705,0,0,1,3.434-.981,58.51,58.51,0,0,1,5.224,4.654Zm1.141-.649h0a8.793,8.793,0,0,0-.979.568,47.142,47.142,0,0,0-5.224-4.573,3.812,3.812,0,0,1,1.8.247,49.078,49.078,0,0,1,4.405,3.758Zm-35.523,47.613h0a56.717,56.717,0,0,1-5.314,3.022,67.1,67.1,0,0,1-6.128-5.8c1.961-1.714,1.961-1.714,4.5-4,3.428,3.509,3.428,3.509,6.944,6.776Zm8.242-5.96h0c-4.088,3.1-4.088,3.1-7.672,5.64-3.516-3.353-3.516-3.353-7.026-6.945,3.265-3.023,3.265-3.023,7.192-6.456,3.75,4,3.75,4,7.507,7.761Zm26.218-24.995h0c-2.938,3.352-2.938,3.352-6.45,7.107-3.349-4.083-3.349-4.083-6.938-8.331,3.836-3.427,3.836-3.427,7.185-6.453a91.515,91.515,0,0,1,6.2,7.677Zm4.006-5.551h0c-1.553,2.284-1.553,2.284-3.675,5.062-2.859-3.838-2.859-3.838-6.046-7.677,2.537-2.369,2.537-2.369,4.5-4.083a66.378,66.378,0,0,1,5.226,6.7Zm1.628-3.434h0a12.215,12.215,0,0,1-1.469,3.1,57.425,57.425,0,0,0-5.054-6.61c1.3-1.23,1.3-1.23,2.2-2.128a69.932,69.932,0,0,1,4.322,5.635Zm.168-1.793h0a5.966,5.966,0,0,1-.168,1.631,46.04,46.04,0,0,0-4.238-5.552,8.292,8.292,0,0,0,.81-.737c1.877,2.285,1.877,2.285,3.6,4.658Zm-38.059,50.07h0a28.717,28.717,0,0,1-4.083.4,44.493,44.493,0,0,1-5.477-3.347,20.2,20.2,0,0,0,3.432-.815,46.4,46.4,0,0,0,6.128,3.758Zm23.765-13.888h0a105.908,105.908,0,0,1-8.411,6.62c-3.02-2.62-3.02-2.62-6.536-5.721,4.414-3.512,4.414-3.512,8.981-7.431,3.187,3.508,3.187,3.508,5.967,6.532Zm8.168-8.33h0a95.636,95.636,0,0,1-7.509,7.755c-2.7-3.1-2.7-3.1-5.883-6.61,4.332-4.166,4.332-4.166,8.332-8.251,2.771,3.838,2.771,3.838,5.061,7.107Zm5.718-7.842h0a77.154,77.154,0,0,1-5.224,7.186c-2.212-3.351-2.212-3.351-4.906-7.105,3.355-3.758,3.355-3.758,6.132-7.187,2.2,3.676,2.2,3.676,4,7.107Zm3.022-6.373h0a39.375,39.375,0,0,1-2.7,5.8,68.807,68.807,0,0,0-3.92-7.107,61.2,61.2,0,0,0,3.355-5.227,49.061,49.061,0,0,1,3.263,6.532Zm.9-4.408h0a16.859,16.859,0,0,1-.733,4,43.208,43.208,0,0,0-3.271-6.45,27.468,27.468,0,0,0,1.308-3.349c1.469,2.939,1.469,2.939,2.7,5.8Zm-.324-2.939h0a11.289,11.289,0,0,1,.324,2.613,44.687,44.687,0,0,0-2.7-5.721,6.676,6.676,0,0,0,0-1.794,44.69,44.69,0,0,1,2.371,4.9Zm-34.468,46.391h0a28.416,28.416,0,0,1-4.5.08,34.705,34.705,0,0,1-4.9-1.631,25.923,25.923,0,0,0,4.161-.247,50.6,50.6,0,0,0,5.23,1.8Zm6.452-1.632h0a42.5,42.5,0,0,1-5.965,1.549,39.021,39.021,0,0,1-5.228-1.795,42.163,42.163,0,0,0,6.044-1.96,36.35,36.35,0,0,0,5.149,2.206Zm7.593-3.676h0a56.2,56.2,0,0,1-7.024,3.43,37.718,37.718,0,0,1-5.153-2.207,57.178,57.178,0,0,0,7.522-4.163c2.616,1.716,2.616,1.716,4.655,2.939Zm7.846-5.882h0a82.28,82.28,0,0,1-7.191,5.47,32.312,32.312,0,0,1-4.571-3.02c4.077-2.936,4.077-2.936,8.166-6.286,2.043,2.2,2.043,2.2,3.6,3.836Zm6.779-7.187h0a81.352,81.352,0,0,1-6.21,6.7c-1.474-1.8-1.474-1.8-3.516-4,3.757-3.674,3.757-3.674,7.191-7.434,1.471,2.612,1.471,2.612,2.535,4.737Zm4.655-7.272h0a60.9,60.9,0,0,1-4.171,6.7c-1.059-2.206-1.059-2.206-2.442-4.819,2.773-3.76,2.773-3.76,4.979-7.189a54.285,54.285,0,0,1,1.635,5.307Zm2.446-6.366h0a31.493,31.493,0,0,1-2.122,5.879,35.848,35.848,0,0,0-1.714-5.391,36.64,36.64,0,0,0,2.533-5.8,38.111,38.111,0,0,1,1.3,5.312Zm.739-4.9h0a32.61,32.61,0,0,1-.569,4.49,42.7,42.7,0,0,0-1.312-5.392,34.049,34.049,0,0,0,.739-4.163,31.708,31.708,0,0,1,1.143,5.065Zm-25.406,36.017h0a31.741,31.741,0,0,1-5.471,1.392,16.344,16.344,0,0,1-3.92-.331,31.026,31.026,0,0,0,5.879-1.47,21.507,21.507,0,0,0,3.512.409Zm6.62-3.024h0c-3.11,1.554-3.11,1.554-6.128,2.862a20.249,20.249,0,0,1-3.426-.4,54.562,54.562,0,0,0,6.854-3.434,16.61,16.61,0,0,0,2.7.976Zm6.534-4.818h0a63.433,63.433,0,0,1-6.042,4.491c-1.149-.407-1.149-.407-2.537-.977a70.536,70.536,0,0,0,6.86-5.227,16.029,16.029,0,0,0,1.719,1.713Zm5.471-5.96h0a66.091,66.091,0,0,1-4.977,5.555c-.655-.733-.655-.733-1.557-1.8a62.752,62.752,0,0,0,5.879-6.448,11.829,11.829,0,0,1,.655,2.695Zm3.92-6.209h0a43.317,43.317,0,0,1-3.512,5.719,12.7,12.7,0,0,0-.653-2.781,52.618,52.618,0,0,0,4.081-6.45,16.75,16.75,0,0,1,.084,3.513Zm2.2-5.879h0a26.526,26.526,0,0,1-1.957,5.389,17.53,17.53,0,0,0-.082-3.513,33.7,33.7,0,0,0,2.129-5.8,20.682,20.682,0,0,1-.09,3.923Z" transform="translate(-1109.229 -293.784)" fill="#00234c" fill-rule="evenodd"/>
    </g>
    <g id="Group_23" data-name="Group 23" transform="translate(165.78 389.25)">
      <g id="Group_8" data-name="Group 8" transform="translate(0 0.154)">
        <path id="Path_5" data-name="Path 5" d="M174.426,943.682v-12.6h-5.658v-.925h12.361v.925h-5.658v12.6Z" transform="translate(-168.317 -929.711)" fill="#00234c"/>
        <path id="Path_6" data-name="Path 6" d="M173.386,941.593h-1.937V929H165.78v-1.825h13.264V929h-5.658Zm-1.048-.9h.146V928.1h5.666v-.03H166.682v.03h5.656Z" transform="translate(-165.78 -927.174)" fill="#00234c"/>
      </g>
      <g id="Group_9" data-name="Group 9" transform="translate(15.265 0.154)">
        <path id="Path_7" data-name="Path 7" d="M271.719,943.682a7.115,7.115,0,0,1-.711-.039,1.156,1.156,0,0,1-.7-.366,1.238,1.238,0,0,1-.374-.695,5.8,5.8,0,0,1-.051-.773v-9.853a2.047,2.047,0,0,1,.15-.9,3.271,3.271,0,0,1,.232-.394,1.172,1.172,0,0,1,.662-.424,3.381,3.381,0,0,1,.745-.077h7.977v.925h-7.82a1.806,1.806,0,0,0-.378.049.674.674,0,0,0-.32.144.6.6,0,0,0-.185.354,2.376,2.376,0,0,0-.019.322V936.3h8.538v.926h-8.538v4.812a.815.815,0,0,0,.043.276.589.589,0,0,0,.146.265.746.746,0,0,0,.4.132,3.774,3.774,0,0,0,.475.042h7.743v.926Z" transform="translate(-269.436 -929.711)" fill="#00234c"/>
        <path id="Path_8" data-name="Path 8" d="M277.646,941.593h-8.465a6.8,6.8,0,0,1-.763-.041,1.6,1.6,0,0,1-.962-.5,1.644,1.644,0,0,1-.5-.943,6.536,6.536,0,0,1-.06-.84V929.42a2.45,2.45,0,0,1,.2-1.106,2.794,2.794,0,0,1,.284-.47,1.634,1.634,0,0,1,.906-.582,4.127,4.127,0,0,1,.849-.088h8.428V929H269.3a1.294,1.294,0,0,0-.282.039.565.565,0,0,0-.11.032l-.011.014a.114.114,0,0,0-.03.077c-.026.174-.032.237-.032.259v3.9h8.544v1.822h-8.544V939.5a.958.958,0,0,0,.032.154.116.116,0,0,1,.017.047,1.453,1.453,0,0,0,.157.028,3.2,3.2,0,0,0,.415.035h8.194Zm-9.571-13.184a3.012,3.012,0,0,0-.174.319,1.473,1.473,0,0,0-.11.692v9.853a4.651,4.651,0,0,0,.056.708.809.809,0,0,0,.232.445.824.824,0,0,0,.434.237,6.441,6.441,0,0,0,.668.036h7.563v-.032h-7.292a4.3,4.3,0,0,1-.535-.045,1.01,1.01,0,0,1-.651-.259,1.046,1.046,0,0,1-.258-.454,1.45,1.45,0,0,1-.067-.4v-5.257h8.538v-.033h-8.538V929.42a3.073,3.073,0,0,1,.037-.376,1.01,1.01,0,0,1,.311-.628,1.093,1.093,0,0,1,.533-.253,2.162,2.162,0,0,1,.473-.061h7.378v-.03h-7.535a2.957,2.957,0,0,0-.659.068.727.727,0,0,0-.4.27Z" transform="translate(-266.898 -927.174)" fill="#00234c"/>
      </g>
      <g id="Group_10" data-name="Group 10" transform="translate(28.791 0.154)">
        <path id="Path_9" data-name="Path 9" d="M364.982,943.682a6.268,6.268,0,0,1-1.473-.156,5.763,5.763,0,0,1-1.143-.388,4.487,4.487,0,0,1-.842-.49,4.834,4.834,0,0,1-.576-.494,4.419,4.419,0,0,1-1.186-2.1,11.427,11.427,0,0,1-.324-2.946c0-.462.013-.934.043-1.41a7.849,7.849,0,0,1,.187-1.412,6.59,6.59,0,0,1,.438-1.332,3.964,3.964,0,0,1,.782-1.158,3.433,3.433,0,0,1,.636-.579,4.638,4.638,0,0,1,.9-.523,6.413,6.413,0,0,1,1.158-.385,6.239,6.239,0,0,1,1.463-.153h5.17v.925H365.48c-.254,0-.546.013-.885.04a4.358,4.358,0,0,0-1.04.205,4.756,4.756,0,0,0-1.046.47,3.317,3.317,0,0,0-.945.852,3.7,3.7,0,0,0-.55.989,6,6,0,0,0-.3,1.133,10.16,10.16,0,0,0-.127,1.19c-.017.406-.028.8-.028,1.166,0,.271,0,.571.011.9a6.879,6.879,0,0,0,.367,2.09,3.69,3.69,0,0,0,.518.994,3.212,3.212,0,0,0,.969.927,5.46,5.46,0,0,0,1.087.5,4.374,4.374,0,0,0,.992.189c.307.018.541.03.7.03h5.228v.926Z" transform="translate(-358.993 -929.711)" fill="#00234c"/>
        <path id="Path_10" data-name="Path 10" d="M368.379,941.593h-5.9a6.767,6.767,0,0,1-1.587-.168,6.459,6.459,0,0,1-1.222-.414,5.513,5.513,0,0,1-.919-.539,6,6,0,0,1-.625-.538,4.955,4.955,0,0,1-1.3-2.3,12.327,12.327,0,0,1-.331-3.058c0-.471.007-.956.035-1.434a9.022,9.022,0,0,1,.206-1.484,7.247,7.247,0,0,1,.458-1.416,4.37,4.37,0,0,1,.866-1.281,4.759,4.759,0,0,1,.7-.637,5.6,5.6,0,0,1,.979-.569,6.885,6.885,0,0,1,1.239-.414,6.67,6.67,0,0,1,1.57-.169h5.621V929h-5.183c-.241,0-.531.012-.853.035a4.427,4.427,0,0,0-.939.184,4.669,4.669,0,0,0-.951.433,3,3,0,0,0-.823.739,3.189,3.189,0,0,0-.485.875,5.273,5.273,0,0,0-.271,1.046,7.318,7.318,0,0,0-.12,1.136c-.019.4-.03.788-.03,1.148,0,.271,0,.565.011.89a5.463,5.463,0,0,0,.09.962,6.249,6.249,0,0,0,.253.988,3.244,3.244,0,0,0,.451.881,2.657,2.657,0,0,0,.842.8,4.1,4.1,0,0,0,.979.448,3.438,3.438,0,0,0,.889.174c.3.021.528.03.674.03h5.681Zm-5.838-13.521a5.646,5.646,0,0,0-2.436.5,4.343,4.343,0,0,0-.816.475,4.8,4.8,0,0,0-.573.511l0,.018a3.4,3.4,0,0,0-.7,1.029,6.605,6.605,0,0,0-.408,1.25,8.4,8.4,0,0,0-.187,1.334c-.026.466-.034.932-.034,1.389a11.276,11.276,0,0,0,.305,2.835,4.155,4.155,0,0,0,1.07,1.89,6.389,6.389,0,0,0,.531.452,4.626,4.626,0,0,0,.763.444,5.542,5.542,0,0,0,1.05.354,5.97,5.97,0,0,0,1.379.144h5v-.032H362.7c-.17,0-.4-.01-.73-.028a4.678,4.678,0,0,1-1.091-.213,5.556,5.556,0,0,1-1.186-.536,3.722,3.722,0,0,1-1.106-1.055,4.244,4.244,0,0,1-.576-1.109,7.416,7.416,0,0,1-.29-1.133,7.867,7.867,0,0,1-.1-1.092c-.009-.328-.009-.63-.009-.9,0-.378.009-.774.024-1.19s.067-.841.133-1.238a7.359,7.359,0,0,1,.324-1.211,4.034,4.034,0,0,1,.621-1.116,3.86,3.86,0,0,1,1.07-.961,5.5,5.5,0,0,1,1.143-.518,5.557,5.557,0,0,1,1.134-.221c.348-.022.657-.038.922-.038h4.294v-.03Z" transform="translate(-356.492 -927.174)" fill="#00234c"/>
      </g>
      <g id="Group_11" data-name="Group 11" transform="translate(43.449 0.154)">
        <path id="Path_11" data-name="Path 11" d="M467.388,943.682h-1.04v-6.414h-8.774v6.414H456.53v-13.52h1.044v6.18h8.774v-6.18h1.04Z" transform="translate(-456.085 -929.711)" fill="#00234c"/>
        <path id="Path_12" data-name="Path 12" d="M465.338,941.593h-1.944V935.18h-7.868v6.414h-1.942V927.174h1.942v6.183h7.868v-6.183h1.944Zm-1.048-.9h.15V928.072h-.15v6.177h-9.666v-6.177h-.144V940.7h.144v-6.415h9.666Z" transform="translate(-453.585 -927.174)" fill="#00234c"/>
      </g>
      <g id="Group_12" data-name="Group 12" transform="translate(58.94 0)">
        <path id="Path_13" data-name="Path 13" d="M570.591,941.458a1.747,1.747,0,0,1-.3,1.088,1.079,1.079,0,0,1-.928.415,1.147,1.147,0,0,1-.743-.232,3.284,3.284,0,0,1-.608-.755l-7.069-11.412a1.907,1.907,0,0,0-.17-.214.383.383,0,0,0-.277-.115.763.763,0,0,0-.17.067c-.075.042-.118.149-.118.319v12.188h-1.046V930.5a1.576,1.576,0,0,1,.168-.787,1.08,1.08,0,0,1,.385-.4,1.19,1.19,0,0,1,.427-.154,2.1,2.1,0,0,1,.3-.029,1.123,1.123,0,0,1,.836.282,3.152,3.152,0,0,1,.492.621l7.108,11.477c.058.079.107.154.168.231a.3.3,0,0,0,.258.118c.131,0,.206-.043.223-.127a1.1,1.1,0,0,0,.03-.222V929.287h1.04Z" transform="translate(-558.711 -928.682)" fill="#00234c"/>
        <path id="Path_14" data-name="Path 14" d="M566.846,940.887a1.565,1.565,0,0,1-1.027-.337,3.7,3.7,0,0,1-.7-.859l-6.981-11.267V940.73H556.2V927.978a1.979,1.979,0,0,1,.223-1.009,1.523,1.523,0,0,1,.554-.57,1.659,1.659,0,0,1,.589-.205,2.4,2.4,0,0,1,.361-.037,1.564,1.564,0,0,1,1.153.411,4,4,0,0,1,.561.708l6.949,11.23v-12.2h1.942v12.622a2.211,2.211,0,0,1-.4,1.355A1.505,1.505,0,0,1,566.846,940.887Zm-8.867-13.629a.814.814,0,0,1,.588.247,1.613,1.613,0,0,1,.241.3l7.069,11.411a2.632,2.632,0,0,0,.507.642.721.721,0,0,0,.462.13.633.633,0,0,0,.571-.237,1.359,1.359,0,0,0,.215-.817V927.208h-.142v11.778a1.56,1.56,0,0,1-.043.326.625.625,0,0,1-.662.468.72.72,0,0,1-.612-.292,2.377,2.377,0,0,1-.18-.251l-7.12-11.487a2.692,2.692,0,0,0-.43-.547.7.7,0,0,0-.518-.15,1.672,1.672,0,0,0-.234.024.7.7,0,0,0-.273.1.676.676,0,0,0-.221.24,1.126,1.126,0,0,0-.1.558v11.856h.151V928.093a.734.734,0,0,1,.361-.715A.773.773,0,0,1,557.979,927.258Z" transform="translate(-556.199 -926.157)" fill="#00234c"/>
      </g>
      <g id="Group_13" data-name="Group 13" transform="translate(74.624 0)">
        <path id="Path_15" data-name="Path 15" d="M670.85,929.169a8.544,8.544,0,0,1,1.3.184,6.034,6.034,0,0,1,1.291.436,4.045,4.045,0,0,1,1.143.811,4.238,4.238,0,0,1,.9,1.276,6.475,6.475,0,0,1,.466,1.426,9.339,9.339,0,0,1,.193,1.452c.032.473.043.9.043,1.294s-.011.817-.043,1.292a9.256,9.256,0,0,1-.193,1.448,6.425,6.425,0,0,1-.466,1.428,4.274,4.274,0,0,1-.9,1.278,4.179,4.179,0,0,1-1.143.817,5.771,5.771,0,0,1-1.291.445,7.234,7.234,0,0,1-1.3.176c-.434.019-.829.029-1.216.029-.367,0-.771-.01-1.2-.029a7.43,7.43,0,0,1-1.31-.176,5.8,5.8,0,0,1-1.28-.445,4.175,4.175,0,0,1-1.149-.817,4.274,4.274,0,0,1-.894-1.278,6.117,6.117,0,0,1-.47-1.428,8.982,8.982,0,0,1-.2-1.448c-.032-.475-.037-.907-.037-1.292s0-.822.037-1.294a9.061,9.061,0,0,1,.2-1.452,6.162,6.162,0,0,1,.47-1.426,4.238,4.238,0,0,1,.894-1.276,4.042,4.042,0,0,1,1.149-.811,6.066,6.066,0,0,1,1.28-.436,8.79,8.79,0,0,1,1.31-.184c.432-.026.836-.038,1.2-.038C670.021,929.131,670.416,929.143,670.85,929.169Zm-6.62,8.094a7.432,7.432,0,0,0,.138,1.247,6.632,6.632,0,0,0,.348,1.187,3.4,3.4,0,0,0,.651,1.043,3.051,3.051,0,0,0,.969.745,4.825,4.825,0,0,0,1.111.386,6.105,6.105,0,0,0,1.143.144c.378.015.732.022,1.046.022s.679-.006,1.059-.022a6.02,6.02,0,0,0,1.134-.144,4.736,4.736,0,0,0,1.108-.386,3.514,3.514,0,0,0,1.628-1.788,6.452,6.452,0,0,0,.348-1.187,8.142,8.142,0,0,0,.14-1.247c.011-.421.017-.83.017-1.215s-.007-.795-.017-1.219a8.072,8.072,0,0,0-.14-1.242,6.4,6.4,0,0,0-.348-1.191,3.351,3.351,0,0,0-.659-1.043,3.409,3.409,0,0,0-.969-.745,5.064,5.064,0,0,0-1.108-.386,6.03,6.03,0,0,0-1.134-.144c-.38-.012-.735-.022-1.059-.022s-.668.01-1.046.022a6.115,6.115,0,0,0-1.143.144,5.165,5.165,0,0,0-1.111.386,3.087,3.087,0,0,0-.969.745,3.4,3.4,0,0,0-.651,1.043,6.576,6.576,0,0,0-.348,1.191,7.369,7.369,0,0,0-.138,1.242c-.013.424-.017.828-.017,1.219S664.217,936.841,664.23,937.262Z" transform="translate(-662.641 -928.682)" fill="#00234c"/>
        <path id="Path_16" data-name="Path 16" d="M667.085,940.887c-.38,0-.786-.015-1.226-.03a8.134,8.134,0,0,1-1.377-.189,6.246,6.246,0,0,1-1.383-.473,4.6,4.6,0,0,1-1.267-.911,4.77,4.77,0,0,1-.992-1.4,7.864,7.864,0,0,1-.507-1.527,10.185,10.185,0,0,1-.2-1.516c-.028-.475-.043-.922-.043-1.316s.015-.842.043-1.32a10.3,10.3,0,0,1,.2-1.519,7.926,7.926,0,0,1,.507-1.521,4.78,4.78,0,0,1,.992-1.407,4.541,4.541,0,0,1,1.274-.9,6.549,6.549,0,0,1,1.377-.466,8.683,8.683,0,0,1,1.371-.19c.447-.03.853-.042,1.233-.042s.8.012,1.239.042h0a8.545,8.545,0,0,1,1.37.19,6.811,6.811,0,0,1,1.383.466,4.632,4.632,0,0,1,1.274.9,4.954,4.954,0,0,1,.99,1.4,7.55,7.55,0,0,1,.5,1.527,10.514,10.514,0,0,1,.2,1.519c.024.48.037.925.037,1.32s-.013.836-.037,1.316a10.36,10.36,0,0,1-.2,1.516,7.318,7.318,0,0,1-.5,1.527,4.928,4.928,0,0,1-.99,1.4,4.668,4.668,0,0,1-1.269.911,6.274,6.274,0,0,1-1.388.473,8.074,8.074,0,0,1-1.377.189C667.878,940.872,667.471,940.887,667.085,940.887Zm0-13.834c-.354,0-.752.012-1.177.04a7.662,7.662,0,0,0-1.233.171,6.106,6.106,0,0,0-1.2.4,3.639,3.639,0,0,0-1.016.727,3.965,3.965,0,0,0-.814,1.142,6.421,6.421,0,0,0-.438,1.332,7.919,7.919,0,0,0-.178,1.387c-.032.459-.043.885-.043,1.268s.011.806.043,1.268a7.935,7.935,0,0,0,.178,1.382,6.435,6.435,0,0,0,.438,1.334,4.063,4.063,0,0,0,.814,1.144,3.933,3.933,0,0,0,1.022.737,5.913,5.913,0,0,0,1.19.411,7.676,7.676,0,0,0,1.224.162c.427.017.825.027,1.185.027s.769-.01,1.192-.027a7.515,7.515,0,0,0,1.224-.162,5.818,5.818,0,0,0,1.19-.411,3.725,3.725,0,0,0,1.022-.737,3.926,3.926,0,0,0,.812-1.144,6.429,6.429,0,0,0,.445-1.334,8.662,8.662,0,0,0,.183-1.382c.028-.466.034-.9.034-1.268s-.007-.8-.034-1.268a8.7,8.7,0,0,0-.183-1.387,6.415,6.415,0,0,0-.445-1.332,3.835,3.835,0,0,0-.812-1.142,3.356,3.356,0,0,0-1.016-.727,6.013,6.013,0,0,0-1.2-.4,7.7,7.7,0,0,0-1.233-.171C667.847,927.065,667.452,927.053,667.085,927.053Zm0,12.9c-.32,0-.679-.007-1.063-.018a6.572,6.572,0,0,1-1.222-.156,5.494,5.494,0,0,1-1.207-.419,3.507,3.507,0,0,1-1.111-.849,3.929,3.929,0,0,1-.734-1.176,7.167,7.167,0,0,1-.376-1.268,10.243,10.243,0,0,1-.142-1.317h0c-.013-.423-.019-.838-.019-1.229s.006-.81.019-1.233a10.089,10.089,0,0,1,.142-1.314,7.124,7.124,0,0,1,.376-1.272,3.817,3.817,0,0,1,.745-1.181,3.413,3.413,0,0,1,1.1-.844,5.5,5.5,0,0,1,1.214-.421,7.356,7.356,0,0,1,1.216-.158c.391-.007.75-.014,1.063-.014s.687.006,1.07.014a7.431,7.431,0,0,1,1.222.158,5.17,5.17,0,0,1,1.207.423,3.594,3.594,0,0,1,1.1.842,3.63,3.63,0,0,1,.745,1.181,6.21,6.21,0,0,1,.374,1.272,7.359,7.359,0,0,1,.137,1.314c.02.438.024.857.024,1.233s0,.781-.024,1.229a7.378,7.378,0,0,1-.137,1.314,6.207,6.207,0,0,1-.374,1.272,3.747,3.747,0,0,1-.739,1.181,3.79,3.79,0,0,1-1.106.844,5.447,5.447,0,0,1-1.207.419,6.438,6.438,0,0,1-1.222.156C667.776,939.948,667.416,939.954,667.085,939.954Zm0-11.976c-.305,0-.655.007-1.035.021a5.894,5.894,0,0,0-1.059.136,4.694,4.694,0,0,0-1.007.351,2.641,2.641,0,0,0-.829.638,2.9,2.9,0,0,0-.574.911,6.439,6.439,0,0,0-.324,1.108,7.862,7.862,0,0,0-.127,1.176c-.011.414-.015.817-.015,1.2s0,.786.015,1.2h0a7.817,7.817,0,0,0,.127,1.178,6.472,6.472,0,0,0,.324,1.106,2.891,2.891,0,0,0,.565.9,2.651,2.651,0,0,0,.838.644,4.367,4.367,0,0,0,1.007.351,5.6,5.6,0,0,0,1.059.136c.374.017.722.021,1.035.021s.674,0,1.04-.021a5.647,5.647,0,0,0,1.065-.136,4.511,4.511,0,0,0,1-.348,2.864,2.864,0,0,0,.842-.647,3.076,3.076,0,0,0,.571-.9,6.461,6.461,0,0,0,.324-1.106,7.817,7.817,0,0,0,.127-1.178c.011-.426.019-.833.019-1.2s-.009-.776-.019-1.2a7.714,7.714,0,0,0-.127-1.176,6.428,6.428,0,0,0-.324-1.108,3.2,3.2,0,0,0-.571-.909,3.017,3.017,0,0,0-.842-.643,4.873,4.873,0,0,0-1-.348,5.941,5.941,0,0,0-1.065-.136C667.753,927.985,667.4,927.978,667.085,927.978Z" transform="translate(-660.091 -926.157)" fill="#00234c"/>
      </g>
      <g id="Group_14" data-name="Group 14" transform="translate(91.977 0.154)">
        <path id="Path_17" data-name="Path 17" d="M779.481,943.682c-.108,0-.277-.015-.5-.039a1.063,1.063,0,0,1-.6-.253.875.875,0,0,1-.311-.471,2.3,2.3,0,0,1-.049-.476V930.162h1.04V942.1a2.085,2.085,0,0,0,.019.251.451.451,0,0,0,.131.252.578.578,0,0,0,.284.127,1.8,1.8,0,0,0,.294.03h7.75v.926Z" transform="translate(-777.565 -929.711)" fill="#00234c"/>
        <path id="Path_18" data-name="Path 18" d="M785.457,941.593h-8.5a5.161,5.161,0,0,1-.558-.041,1.534,1.534,0,0,1-.836-.356,1.391,1.391,0,0,1-.464-.715,2.849,2.849,0,0,1-.058-.574V927.174h1.935v12.385c0,.056,0,.111,0,.174.019,0,.039.009.062.014a1.082,1.082,0,0,0,.215.022h8.2Zm-9.528-13.521v11.835a1.9,1.9,0,0,0,.047.379.487.487,0,0,0,.161.228.706.706,0,0,0,.363.148c.264.027.391.036.455.036h7.6v-.032h-7.3a2.367,2.367,0,0,1-.372-.033,1.075,1.075,0,0,1-.494-.226l-.024-.024a.866.866,0,0,1-.264-.509,2.058,2.058,0,0,1-.024-.315V928.072Z" transform="translate(-775.04 -927.174)" fill="#00234c"/>
      </g>
      <g id="Group_15" data-name="Group 15" transform="translate(102.852 0)">
        <path id="Path_19" data-name="Path 19" d="M857.785,929.169a8.631,8.631,0,0,1,1.295.184,5.791,5.791,0,0,1,1.28.436,3.937,3.937,0,0,1,1.158.811,4.4,4.4,0,0,1,.894,1.276,6.721,6.721,0,0,1,.477,1.426,9.345,9.345,0,0,1,.191,1.452c.023.473.043.9.043,1.294s-.02.817-.043,1.292a9.263,9.263,0,0,1-.191,1.448,6.665,6.665,0,0,1-.477,1.428,4.437,4.437,0,0,1-.894,1.278,4.062,4.062,0,0,1-1.158.817,5.544,5.544,0,0,1-1.28.445,7.289,7.289,0,0,1-1.295.176c-.44.019-.842.029-1.216.029s-.775-.01-1.2-.029a7.349,7.349,0,0,1-1.31-.176,5.689,5.689,0,0,1-1.28-.445,3.925,3.925,0,0,1-1.147-.817,4.35,4.35,0,0,1-.9-1.278,6.767,6.767,0,0,1-.471-1.428,9.76,9.76,0,0,1-.2-1.448c-.024-.475-.034-.907-.034-1.292s.011-.822.034-1.294a9.85,9.85,0,0,1,.2-1.452,6.824,6.824,0,0,1,.471-1.426,4.313,4.313,0,0,1,.9-1.276,3.808,3.808,0,0,1,1.147-.811,5.948,5.948,0,0,1,1.28-.436,8.672,8.672,0,0,1,1.31-.184q.641-.038,1.2-.038C856.943,929.131,857.344,929.143,857.785,929.169Zm-6.622,8.094a8.708,8.708,0,0,0,.133,1.247,6.808,6.808,0,0,0,.343,1.187,3.445,3.445,0,0,0,.662,1.043,3.117,3.117,0,0,0,.966.745,4.689,4.689,0,0,0,1.115.386,6.061,6.061,0,0,0,1.138.144c.374.015.724.022,1.048.022s.675-.006,1.057-.022a6.179,6.179,0,0,0,1.139-.144,4.76,4.76,0,0,0,1.106-.386,3.386,3.386,0,0,0,.967-.745,3.284,3.284,0,0,0,.661-1.043,6.784,6.784,0,0,0,.475-2.433c.019-.421.03-.83.03-1.215s-.011-.795-.03-1.219a6.833,6.833,0,0,0-.475-2.433,3.282,3.282,0,0,0-.661-1.043,3.431,3.431,0,0,0-.967-.745,5.092,5.092,0,0,0-1.106-.386,6.189,6.189,0,0,0-1.139-.144c-.382-.012-.735-.022-1.057-.022s-.674.01-1.048.022a6.071,6.071,0,0,0-1.138.144,5.007,5.007,0,0,0-1.115.386,3.155,3.155,0,0,0-.966.745,3.442,3.442,0,0,0-.662,1.043,6.749,6.749,0,0,0-.343,1.191,8.632,8.632,0,0,0-.133,1.242c-.015.424-.015.828-.015,1.219S851.148,936.841,851.163,937.262Z" transform="translate(-849.577 -928.682)" fill="#00234c"/>
        <path id="Path_20" data-name="Path 20" d="M854.068,940.887c-.38,0-.795-.015-1.233-.03a8.346,8.346,0,0,1-1.377-.189,6.137,6.137,0,0,1-1.375-.473,4.482,4.482,0,0,1-1.276-.911,5.073,5.073,0,0,1-.992-1.4,7.766,7.766,0,0,1-.5-1.527,10.017,10.017,0,0,1-.2-1.516c-.032-.48-.036-.922-.036-1.316s0-.84.036-1.32a10.16,10.16,0,0,1,.2-1.519,7.781,7.781,0,0,1,.5-1.521,5.037,5.037,0,0,1,.992-1.407,4.366,4.366,0,0,1,1.28-.9,6.53,6.53,0,0,1,1.37-.466,8.893,8.893,0,0,1,1.37-.19c.445-.03.859-.042,1.239-.042s.8.012,1.231.042h0a8.681,8.681,0,0,1,1.379.19,6.781,6.781,0,0,1,1.375.466,4.506,4.506,0,0,1,1.28.9,4.989,4.989,0,0,1,.988,1.4,7.647,7.647,0,0,1,.5,1.527,10.821,10.821,0,0,1,.206,1.519q.036.735.035,1.32c0,.387-.011.831-.035,1.316a10.656,10.656,0,0,1-.206,1.516,7.451,7.451,0,0,1-.5,1.527,4.917,4.917,0,0,1-.988,1.4,4.585,4.585,0,0,1-1.271.911,6.319,6.319,0,0,1-1.384.473,8.294,8.294,0,0,1-1.383.189C854.861,940.872,854.447,940.887,854.068,940.887Zm0-13.834c-.361,0-.756.012-1.179.04a7.747,7.747,0,0,0-1.237.171,6.117,6.117,0,0,0-1.192.4,3.63,3.63,0,0,0-1.02.727,3.781,3.781,0,0,0-.805,1.142,6.427,6.427,0,0,0-.438,1.332,8.628,8.628,0,0,0-.189,1.387c-.024.459-.036.889-.036,1.268s.013.806.036,1.268a8.623,8.623,0,0,0,.189,1.382,6.343,6.343,0,0,0,.438,1.334,3.871,3.871,0,0,0,.805,1.144,3.825,3.825,0,0,0,1.029.737,5.855,5.855,0,0,0,1.184.411,7.767,7.767,0,0,0,1.226.162c.434.017.825.027,1.19.027s.769-.01,1.184-.027a7.749,7.749,0,0,0,1.233-.162,5.782,5.782,0,0,0,1.186-.411,3.81,3.81,0,0,0,1.027-.737,3.968,3.968,0,0,0,.81-1.144,6.851,6.851,0,0,0,.442-1.334,10.456,10.456,0,0,0,.185-1.382c.024-.47.036-.9.036-1.268s-.013-.8-.036-1.268a10.494,10.494,0,0,0-.185-1.387,6.786,6.786,0,0,0-.442-1.332,4.038,4.038,0,0,0-.81-1.142,3.49,3.49,0,0,0-1.022-.727,5.913,5.913,0,0,0-1.19-.4,7.749,7.749,0,0,0-1.237-.171C854.833,927.065,854.434,927.053,854.068,927.053Zm0,12.9c-.324,0-.685-.007-1.072-.018a6.577,6.577,0,0,1-1.218-.156,5.4,5.4,0,0,1-1.2-.419,3.459,3.459,0,0,1-1.11-.849,3.9,3.9,0,0,1-.739-1.176,7.194,7.194,0,0,1-.367-1.268,7.7,7.7,0,0,1-.144-1.317c-.013-.421-.017-.835-.017-1.229s0-.812.017-1.233a7.6,7.6,0,0,1,.144-1.314,7.151,7.151,0,0,1,.367-1.272,3.9,3.9,0,0,1,.743-1.181,3.534,3.534,0,0,1,1.106-.844,5.474,5.474,0,0,1,1.2-.421A7.628,7.628,0,0,1,853,927.1c.4-.007.748-.014,1.072-.014s.685.006,1.065.014a7.49,7.49,0,0,1,1.224.158,5.027,5.027,0,0,1,1.2.423,3.7,3.7,0,0,1,1.115.842,3.923,3.923,0,0,1,.739,1.181,6.365,6.365,0,0,1,.371,1.272,8.235,8.235,0,0,1,.146,1.314c.009.436.015.849.015,1.233s-.006.794-.015,1.229a8.261,8.261,0,0,1-.146,1.314,6.361,6.361,0,0,1-.371,1.272,3.949,3.949,0,0,1-.739,1.181,3.738,3.738,0,0,1-1.115.844,5.15,5.15,0,0,1-1.2.419,6.485,6.485,0,0,1-1.224.156C854.758,939.948,854.4,939.954,854.068,939.954Zm0-11.976c-.314,0-.662.007-1.039.021a5.8,5.8,0,0,0-1.052.136,4.492,4.492,0,0,0-1.012.351,2.693,2.693,0,0,0-.829.638,2.949,2.949,0,0,0-.576.911,5.9,5.9,0,0,0-.324,1.108,9.533,9.533,0,0,0-.127,1.176c-.019.414-.024.812-.024,1.2s0,.79.024,1.2h0a9.46,9.46,0,0,0,.127,1.178,5.922,5.922,0,0,0,.324,1.106,2.875,2.875,0,0,0,.571.9,2.636,2.636,0,0,0,.833.644,4.194,4.194,0,0,0,1.012.351,5.56,5.56,0,0,0,1.052.136c.374.017.722.021,1.039.021s.666,0,1.042-.021a5.58,5.58,0,0,0,1.054-.136,4.481,4.481,0,0,0,1.008-.348,2.946,2.946,0,0,0,.833-.647,3.056,3.056,0,0,0,.578-.9,6.653,6.653,0,0,0,.324-1.106,6.862,6.862,0,0,0,.12-1.178c.017-.424.023-.827.023-1.2s-.006-.779-.023-1.2a6.782,6.782,0,0,0-.12-1.176,6.617,6.617,0,0,0-.324-1.108,3.173,3.173,0,0,0-.578-.909,3.111,3.111,0,0,0-.833-.643,4.83,4.83,0,0,0-1.008-.348A5.873,5.873,0,0,0,855.11,928C854.73,927.985,854.382,927.978,854.068,927.978Z" transform="translate(-847.077 -926.157)" fill="#00234c"/>
      </g>
      <g id="Group_16" data-name="Group 16" transform="translate(119.806 0.154)">
        <path id="Path_21" data-name="Path 21" d="M974.03,942.177a3.714,3.714,0,0,1-.049.532.973.973,0,0,1-.311.6,1.131,1.131,0,0,1-.584.291,3.11,3.11,0,0,1-.636.079h-5.23a4.8,4.8,0,0,1-1.648-.273,4.529,4.529,0,0,1-1.312-.713,3.834,3.834,0,0,1-1.027-1.2,6.142,6.142,0,0,1-.578-1.45,8.423,8.423,0,0,1-.241-1.546c-.028-.521-.047-1.019-.047-1.495,0-.568.023-1.143.067-1.731a7.865,7.865,0,0,1,.318-1.678,5.721,5.721,0,0,1,.732-1.5,4.162,4.162,0,0,1,1.3-1.181,4.522,4.522,0,0,1,1.678-.621,10.186,10.186,0,0,1,1.465-.127h5.8v.925h-6.085a4.033,4.033,0,0,0-2.189.572,3.756,3.756,0,0,0-1.682,2.363,9.74,9.74,0,0,0-.182,1.026c-.041.349-.075.685-.083,1.013s-.024.62-.024.863a15.97,15.97,0,0,0,.079,1.631c.047.454.114.84.174,1.148a5.452,5.452,0,0,0,.193.725,2.924,2.924,0,0,0,.155.373,3.327,3.327,0,0,0,.462.739,3.509,3.509,0,0,0,.681.617,3.422,3.422,0,0,0,1.972.6h4.977a2.14,2.14,0,0,0,.331-.03.514.514,0,0,0,.309-.186.618.618,0,0,0,.135-.3,1.621,1.621,0,0,0,.039-.336v-4.425h1.04Z" transform="translate(-961.916 -929.711)" fill="#00234c"/>
        <path id="Path_22" data-name="Path 22" d="M969.913,941.593h-5.23a5.238,5.238,0,0,1-1.794-.3,5.17,5.17,0,0,1-1.448-.784,4.493,4.493,0,0,1-1.143-1.343,6.482,6.482,0,0,1-.614-1.555,8.546,8.546,0,0,1-.253-1.626c-.035-.529-.052-1.041-.052-1.524,0-.58.024-1.176.071-1.767a8.174,8.174,0,0,1,.337-1.78,5.982,5.982,0,0,1,.8-1.621,4.418,4.418,0,0,1,1.431-1.3,4.947,4.947,0,0,1,1.841-.685,10.266,10.266,0,0,1,1.529-.132h6.255V929h-6.536a3.638,3.638,0,0,0-1.955.5,3.2,3.2,0,0,0-1.183,1.278,3.477,3.477,0,0,0-.294.812c-.071.318-.131.646-.174.976s-.071.664-.084.974-.019.608-.019.845a15.018,15.018,0,0,0,.071,1.58c.052.443.109.812.17,1.106a5.193,5.193,0,0,0,.174.662,2.588,2.588,0,0,0,.139.334l.007.016a2.767,2.767,0,0,0,.4.63,2.906,2.906,0,0,0,.593.537,2.739,2.739,0,0,0,.756.377,3.028,3.028,0,0,0,.956.141h4.977a1.522,1.522,0,0,0,.26-.022s.036-.03.041-.035a.274.274,0,0,0,.037-.1,1.253,1.253,0,0,0,.03-.246v-4.875h1.935v5.145a4.282,4.282,0,0,1-.054.592,1.417,1.417,0,0,1-.451.875,1.568,1.568,0,0,1-.795.4A3.618,3.618,0,0,1,969.913,941.593Zm-4.524-13.521a9.683,9.683,0,0,0-1.4.118,4.149,4.149,0,0,0-1.517.568,3.707,3.707,0,0,0-1.16,1.052,4.984,4.984,0,0,0-.668,1.377,6.977,6.977,0,0,0-.3,1.58c-.049.566-.066,1.141-.066,1.7,0,.466.011.959.047,1.467a7.57,7.57,0,0,0,.228,1.466,5.649,5.649,0,0,0,.531,1.341,3.418,3.418,0,0,0,.913,1.071,4.158,4.158,0,0,0,1.192.645,4.389,4.389,0,0,0,1.491.244h5.23a2.977,2.977,0,0,0,.545-.066.713.713,0,0,0,.354-.172.549.549,0,0,0,.193-.348c.028-.274.047-.407.047-.473V935.4h-.15v3.974a2.274,2.274,0,0,1-.047.429,1.185,1.185,0,0,1-.228.493,1.009,1.009,0,0,1-.584.34,2.675,2.675,0,0,1-.4.033h-4.977a3.829,3.829,0,0,1-2.992-1.377,3.69,3.69,0,0,1-.53-.83,3.128,3.128,0,0,1-.161-.415,4.565,4.565,0,0,1-.213-.784,10.969,10.969,0,0,1-.178-1.194,14.531,14.531,0,0,1-.086-1.68c0-.249.006-.545.019-.882s.047-.7.094-1.055a9.4,9.4,0,0,1,.187-1.064,4.288,4.288,0,0,1,.374-1.016,4.057,4.057,0,0,1,1.508-1.629,4.473,4.473,0,0,1,2.423-.638h5.634v-.03Z" transform="translate(-959.379 -927.174)" fill="#00234c"/>
      </g>
      <g id="Group_17" data-name="Group 17" transform="translate(135.731 0.154)">
        <path id="Path_23" data-name="Path 23" d="M1067.811,943.682v-13.52h1.042v13.52Z" transform="translate(-1067.367 -929.711)" fill="#00234c"/>
        <path id="Path_24" data-name="Path 24" d="M1066.8,941.593h-1.937V927.174h1.937Zm-1.048-.9h.15V928.072h-.15Z" transform="translate(-1064.867 -927.174)" fill="#00234c"/>
      </g>
      <g id="Group_18" data-name="Group 18" transform="translate(141.405 0.154)">
        <path id="Path_25" data-name="Path 25" d="M1107.276,943.682c-.232,0-.473-.015-.715-.039a1.168,1.168,0,0,1-.7-.366,1.253,1.253,0,0,1-.367-.695,5.8,5.8,0,0,1-.054-.773v-9.853a2.045,2.045,0,0,1,.151-.9,2.487,2.487,0,0,1,.236-.394,1.12,1.12,0,0,1,.653-.424,3.467,3.467,0,0,1,.752-.077h7.977v.925h-7.82a1.8,1.8,0,0,0-.38.049.677.677,0,0,0-.316.144.587.587,0,0,0-.187.354,2.778,2.778,0,0,0-.026.322V936.3h8.538v.926h-8.538v4.812a.785.785,0,0,0,.049.276.567.567,0,0,0,.144.265.754.754,0,0,0,.4.132,3.809,3.809,0,0,0,.475.042h7.743v.926Z" transform="translate(-1104.993 -929.711)" fill="#00234c"/>
        <path id="Path_26" data-name="Path 26" d="M1113.207,941.593h-8.467a6.753,6.753,0,0,1-.763-.041,1.568,1.568,0,0,1-.96-.5,1.66,1.66,0,0,1-.5-.943,5.836,5.836,0,0,1-.06-.84V929.42a2.447,2.447,0,0,1,.2-1.106,3.239,3.239,0,0,1,.277-.47,1.641,1.641,0,0,1,.913-.582,4.067,4.067,0,0,1,.849-.088h8.428V929h-8.271a1.265,1.265,0,0,0-.281.039.559.559,0,0,0-.11.032l-.013.014a.117.117,0,0,0-.028.077c-.024.174-.032.237-.032.259v3.9h8.542v1.822h-8.542V939.5a1.343,1.343,0,0,0,.032.154c0,.021.017.035.017.047.03.006.077.018.15.028a3.239,3.239,0,0,0,.421.035h8.195Zm-9.578-13.184a2.816,2.816,0,0,0-.169.319,1.449,1.449,0,0,0-.114.692v9.853a4.417,4.417,0,0,0,.062.708.726.726,0,0,0,.234.445.8.8,0,0,0,.425.237,6.612,6.612,0,0,0,.672.036h7.563v-.032h-7.29a4.4,4.4,0,0,1-.537-.045,1,1,0,0,1-.649-.259,1.027,1.027,0,0,1-.264-.454,1.427,1.427,0,0,1-.06-.4v-5.257h8.532v-.033H1103.5V929.42a2.455,2.455,0,0,1,.032-.374.972.972,0,0,1,.316-.63,1.057,1.057,0,0,1,.53-.253,2.135,2.135,0,0,1,.475-.061h7.372v-.03H1104.7a2.962,2.962,0,0,0-.661.068.759.759,0,0,0-.408.27Z" transform="translate(-1102.456 -927.174)" fill="#00234c"/>
      </g>
      <g id="Group_19" data-name="Group 19" transform="translate(154.927 0.154)">
        <path id="Path_27" data-name="Path 27" d="M1195.184,942.757h7.629a1.75,1.75,0,0,0,.589-.1,1.166,1.166,0,0,0,.5-.358,1.958,1.958,0,0,0,.354-.7,4.085,4.085,0,0,0,.137-1.16,3.26,3.26,0,0,0-.06-.648,1.618,1.618,0,0,0-.232-.6,1.915,1.915,0,0,0-.513-.529,3.424,3.424,0,0,0-.9-.445l-5.385-1.855a5.815,5.815,0,0,1-.945-.423,2.61,2.61,0,0,1-.715-.581,2.356,2.356,0,0,1-.552-1.052,5.222,5.222,0,0,1-.127-1.13,5.305,5.305,0,0,1,.146-1.17,2.168,2.168,0,0,1,.767-1.169,2.823,2.823,0,0,1,.814-.462,3.485,3.485,0,0,1,1.327-.211h6.854v.925h-6.968a2.54,2.54,0,0,0-.763.125,1.456,1.456,0,0,0-.649.4,1.364,1.364,0,0,0-.357.795c-.03.306-.047.577-.047.812,0,.219.013.43.028.634a1.632,1.632,0,0,0,.163.583,1.572,1.572,0,0,0,.415.509,2.383,2.383,0,0,0,.762.417l5.254,1.855a10.353,10.353,0,0,1,1.119.445,3.138,3.138,0,0,1,.853.559,2.316,2.316,0,0,1,.664,1.083,4.3,4.3,0,0,1,.168,1.1c0,.028-.006.127-.013.3a5.057,5.057,0,0,1-.064.619,5.127,5.127,0,0,1-.193.752,2.732,2.732,0,0,1-.382.725,2.159,2.159,0,0,1-.507.484,2.3,2.3,0,0,1-.552.259,2.894,2.894,0,0,1-.573.116,5.025,5.025,0,0,1-.541.03h-7.507Z" transform="translate(-1194.522 -929.711)" fill="#00234c"/>
        <path id="Path_28" data-name="Path 28" d="M1200.191,941.593h-7.96v-1.825h8.083a1.382,1.382,0,0,0,.445-.069.779.779,0,0,0,.307-.228,1.522,1.522,0,0,0,.269-.541,3.616,3.616,0,0,0,.114-1.031,3.479,3.479,0,0,0-.047-.565,1.315,1.315,0,0,0-.174-.446,1.513,1.513,0,0,0-.4-.406,2.582,2.582,0,0,0-.769-.381l-5.394-1.855a6.389,6.389,0,0,1-1.02-.461,2.876,2.876,0,0,1-.842-.681,2.837,2.837,0,0,1-.642-1.245,5.653,5.653,0,0,1-.133-1.224,5.389,5.389,0,0,1,.161-1.265,2.486,2.486,0,0,1,.908-1.412,3.333,3.333,0,0,1,.932-.539,3.991,3.991,0,0,1,1.5-.246h7.305V929h-7.419a2.222,2.222,0,0,0-.632.1,1.112,1.112,0,0,0-.451.277.925.925,0,0,0-.247.532,7.508,7.508,0,0,0-.041.767,4.787,4.787,0,0,0,.03.592,1,1,0,0,0,.118.423,1.3,1.3,0,0,0,.3.374,1.921,1.921,0,0,0,.625.33l5.25,1.855c.423.148.818.3,1.166.461a3.385,3.385,0,0,1,.96.643,2.742,2.742,0,0,1,.795,1.286,4.663,4.663,0,0,1,.181,1.22c0,.028,0,.135,0,.316s-.039.418-.073.672a5.9,5.9,0,0,1-.215.828,2.891,2.891,0,0,1-.458.851,2.453,2.453,0,0,1-.608.589,2.757,2.757,0,0,1-.661.313,3.446,3.446,0,0,1-.66.136C1200.577,941.581,1200.384,941.593,1200.191,941.593Zm-7.062-.9h7.063c.163,0,.324-.012.5-.027a2.676,2.676,0,0,0,.483-.1,1.938,1.938,0,0,0,.445-.21,1.546,1.546,0,0,0,.385-.378,2.041,2.041,0,0,0,.324-.6,5.051,5.051,0,0,0,.17-.68c.034-.222.058-.408.067-.563s0-.257,0-.285a3.415,3.415,0,0,0-.15-.984,1.864,1.864,0,0,0-.541-.876,2.62,2.62,0,0,0-.726-.472,10,10,0,0,0-1.076-.431l-5.262-1.857a2.716,2.716,0,0,1-.9-.5,2.24,2.24,0,0,1-.531-.652,2.112,2.112,0,0,1-.2-.74,6.307,6.307,0,0,1-.036-.676,7.659,7.659,0,0,1,.056-.858,1.8,1.8,0,0,1,.475-1.055,1.987,1.987,0,0,1,.836-.518,3.146,3.146,0,0,1,.9-.144h6.53v-.03h-6.416a3.105,3.105,0,0,0-1.162.178,2.487,2.487,0,0,0-.683.388,1.73,1.73,0,0,0-.625.929,5.131,5.131,0,0,0-.133,1.07,4.75,4.75,0,0,0,.114,1.034,1.852,1.852,0,0,0,.451.851,2.193,2.193,0,0,0,.595.488,5.148,5.148,0,0,0,.879.391l5.393,1.855a4.076,4.076,0,0,1,1.016.508,2.432,2.432,0,0,1,.623.654,2.129,2.129,0,0,1,.3.758,4.271,4.271,0,0,1,.052.725,4.882,4.882,0,0,1-.142,1.289,2.407,2.407,0,0,1-.447.867,1.61,1.61,0,0,1-.7.49,2.181,2.181,0,0,1-.732.12h-7.185Z" transform="translate(-1192.022 -927.174)" fill="#00234c"/>
      </g>
      <g id="Group_20" data-name="Group 20" transform="translate(176.155 0.154)">
        <path id="Path_29" data-name="Path 29" d="M1337.081,943.682c-.109,0-.277-.015-.5-.039a1.062,1.062,0,0,1-.6-.253.9.9,0,0,1-.312-.471,2.353,2.353,0,0,1-.056-.476V930.162h1.048V942.1a2.116,2.116,0,0,0,.017.251.458.458,0,0,0,.127.252.608.608,0,0,0,.281.127,1.973,1.973,0,0,0,.3.03h7.743v.926Z" transform="translate(-1335.163 -929.711)" fill="#00234c"/>
        <path id="Path_30" data-name="Path 30" d="M1343.056,941.593h-8.5a5.1,5.1,0,0,1-.554-.041,1.569,1.569,0,0,1-.84-.356,1.31,1.31,0,0,1-.457-.722,2.958,2.958,0,0,1-.066-.568V927.174h1.935v12.385a1.222,1.222,0,0,0,.019.171.116.116,0,0,0,.047.017,1.143,1.143,0,0,0,.221.022h8.194Zm-9.522-13.521v11.835a2.082,2.082,0,0,0,.047.379.464.464,0,0,0,.163.228.7.7,0,0,0,.361.148c.258.027.385.036.451.036h7.61v-.032h-7.305a2.441,2.441,0,0,1-.376-.033,1.091,1.091,0,0,1-.49-.226l-.023-.024a.866.866,0,0,1-.264-.509,2.044,2.044,0,0,1-.024-.315V928.072Z" transform="translate(-1332.639 -927.174)" fill="#00234c"/>
      </g>
      <g id="Group_21" data-name="Group 21" transform="translate(184.517 0.154)">
        <path id="Path_31" data-name="Path 31" d="M1396.674,943.682v-12.6h-5.658v-.925h12.361v.925h-5.658v12.6Z" transform="translate(-1390.565 -929.711)" fill="#00234c"/>
        <path id="Path_32" data-name="Path 32" d="M1395.634,941.593h-1.944V929h-5.662v-1.825h13.264V929h-5.658Zm-1.046-.9h.144V928.1h5.656v-.03h-11.462v.03h5.662Z" transform="translate(-1388.028 -927.174)" fill="#00234c"/>
      </g>
      <g id="Group_22" data-name="Group 22" transform="translate(199.78 0.154)">
        <path id="Path_33" data-name="Path 33" d="M1494.02,943.682a5.191,5.191,0,0,1-.732-.052,1.281,1.281,0,0,1-.674-.278,1.073,1.073,0,0,1-.408-.548,2.648,2.648,0,0,1-.071-.61v-10.1a3.769,3.769,0,0,1,.064-.706,1.4,1.4,0,0,1,.391-.722,1.421,1.421,0,0,1,.655-.418,2.692,2.692,0,0,1,.625-.084h4.595c.178,0,.419.009.711.036a5.141,5.141,0,0,1,.954.2,5.967,5.967,0,0,1,1.1.469,5.282,5.282,0,0,1,1.119.865,4.711,4.711,0,0,1,.853,1.185,5.9,5.9,0,0,1,.455,1.278,6.3,6.3,0,0,1,.189,1.282c.017.424.028.83.028,1.218s-.01.83-.038,1.3a9.993,9.993,0,0,1-.178,1.4,6.825,6.825,0,0,1-.4,1.4,4.514,4.514,0,0,1-.735,1.274,4.334,4.334,0,0,1-1.418,1.152,4.959,4.959,0,0,1-2.292.471Zm-.852-1.776a1.125,1.125,0,0,0,.137.694.5.5,0,0,0,.32.136c.137.014.234.021.3.021h4.85a5.6,5.6,0,0,0,.775-.06,3.766,3.766,0,0,0,.866-.237,3.321,3.321,0,0,0,.861-.544,3.473,3.473,0,0,0,.739-.956,5.724,5.724,0,0,0,.571-1.835,16.074,16.074,0,0,0,.167-2.511c0-.36-.013-.718-.03-1.085a7.03,7.03,0,0,0-.138-1.061,4.32,4.32,0,0,0-.32-1,4.387,4.387,0,0,0-.556-.929,3.613,3.613,0,0,0-1.39-1.078,4.357,4.357,0,0,0-1.8-.372h-4.558a1.756,1.756,0,0,0-.264.022.608.608,0,0,0-.283.115,1.39,1.39,0,0,0-.174.239.808.808,0,0,0-.077.361Z" transform="translate(-1491.681 -929.711)" fill="#00234c"/>
        <path id="Path_34" data-name="Path 34" d="M1496.264,941.593h-4.792a6.276,6.276,0,0,1-.786-.055,1.73,1.73,0,0,1-.9-.371,1.508,1.508,0,0,1-.561-.788,3.017,3.017,0,0,1-.09-.721v-10.1a4.444,4.444,0,0,1,.073-.784,1.86,1.86,0,0,1,.517-.953,1.785,1.785,0,0,1,.866-.538,2.988,2.988,0,0,1,.732-.105h4.595c.2,0,.438.012.752.042a5.1,5.1,0,0,1,1.037.211,5.756,5.756,0,0,1,1.192.511,5.543,5.543,0,0,1,1.222.934,5.251,5.251,0,0,1,.932,1.3,6.478,6.478,0,0,1,.5,1.371,7.85,7.85,0,0,1,.2,1.368c.019.433.024.847.024,1.238s-.013.847-.036,1.32a12.288,12.288,0,0,1-.181,1.457,8.339,8.339,0,0,1-.432,1.479,5.1,5.1,0,0,1-.795,1.392,4.808,4.808,0,0,1-1.563,1.265A5.309,5.309,0,0,1,1496.264,941.593Zm-4.942-13.521a2.019,2.019,0,0,0-.511.073.971.971,0,0,0-.445.289,1.073,1.073,0,0,0-.281.492,4.946,4.946,0,0,0-.056.628v10.1a1.907,1.907,0,0,0,.068.492.611.611,0,0,0,.232.31.9.9,0,0,0,.464.189,5.515,5.515,0,0,0,.678.048h4.792a4.428,4.428,0,0,0,2.081-.428,3.724,3.724,0,0,0,1.274-1.021,4.543,4.543,0,0,0,.675-1.163,7.725,7.725,0,0,0,.376-1.326,8.948,8.948,0,0,0,.17-1.341c.03-.451.036-.881.036-1.265s-.006-.78-.024-1.2a7.323,7.323,0,0,0-.168-1.2,5.778,5.778,0,0,0-.434-1.182,4.379,4.379,0,0,0-.776-1.075,4.583,4.583,0,0,0-1.011-.777,5.273,5.273,0,0,0-1.014-.438,4.29,4.29,0,0,0-.865-.174c-.273-.025-.5-.038-.668-.038Zm4.906,12.594h-4.85c-.08,0-.193-.01-.344-.021a.933.933,0,0,1-.588-.261,1.365,1.365,0,0,1-.266-1.014V929.287a1.135,1.135,0,0,1,.135-.57,1.064,1.064,0,0,1,.251-.348l.047-.049a1.008,1.008,0,0,1,.483-.192,2.215,2.215,0,0,1,.322-.025h4.558a4.976,4.976,0,0,1,1.978.4,4.109,4.109,0,0,1,1.562,1.219,4.937,4.937,0,0,1,.621,1.021,5.708,5.708,0,0,1,.348,1.094,8.561,8.561,0,0,1,.138,1.13c.023.364.03.737.03,1.106a16.953,16.953,0,0,1-.168,2.577,6.23,6.23,0,0,1-.618,1.977,3.761,3.761,0,0,1-.849,1.088,3.72,3.72,0,0,1-.979.616,3.819,3.819,0,0,1-.979.269A6,6,0,0,1,1496.228,940.665Zm-5.127-.911h.011c.17.012.243.014.243.014h4.874a4.99,4.99,0,0,0,.711-.051,3.439,3.439,0,0,0,.756-.209,2.876,2.876,0,0,0,.745-.469,2.946,2.946,0,0,0,.638-.832,5.5,5.5,0,0,0,.524-1.687,16.726,16.726,0,0,0,.155-2.443c0-.351,0-.709-.028-1.059a7.312,7.312,0,0,0-.127-1,4.84,4.84,0,0,0-.288-.913,4.119,4.119,0,0,0-.5-.833,3.2,3.2,0,0,0-1.222-.944,3.943,3.943,0,0,0-1.615-.33h-4.558a1.717,1.717,0,0,0-.2.015s-.03.008-.047.015a1.083,1.083,0,0,0-.071.1.352.352,0,0,0-.028.154v10.083A1.846,1.846,0,0,0,1491.1,939.755Z" transform="translate(-1489.133 -927.174)" fill="#00234c"/>
      </g>
    </g>
  </g>
</svg>
